<?xml version="1.0" encoding="UTF-8" standalone="no"?>
<!-- Created with Inkscape (http://www.inkscape.org/) -->

<svg
   xmlns:dc="http://purl.org/dc/elements/1.1/"
   xmlns:cc="http://creativecommons.org/ns#"
   xmlns:rdf="http://www.w3.org/1999/02/22-rdf-syntax-ns#"
   xmlns:svg="http://www.w3.org/2000/svg"
   xmlns="http://www.w3.org/2000/svg"
   xmlns:sodipodi="http://sodipodi.sourceforge.net/DTD/sodipodi-0.dtd"
   xmlns:inkscape="http://www.inkscape.org/namespaces/inkscape"
   version="1.1"
   id="svg2"
   xml:space="preserve"
   width="167.06799"
   height="189.42667"
   viewBox="0 0 167.06799 189.42667"
   sodipodi:docname="joint-action-scenario.svg"
   inkscape:version="0.92.3 (2405546, 2018-03-11)"><metadata
     id="metadata8"><rdf:RDF><cc:Work
         rdf:about=""><dc:format>image/svg+xml</dc:format><dc:type
           rdf:resource="http://purl.org/dc/dcmitype/StillImage" /><dc:title /></cc:Work></rdf:RDF></metadata><defs
     id="defs6"><clipPath
       clipPathUnits="userSpaceOnUse"
       id="clipPath90"><path
         d="m 288,72.409 h 5 v -5 h -5 z"
         id="path88"
         inkscape:connector-curvature="0" /></clipPath><clipPath
       clipPathUnits="userSpaceOnUse"
       id="clipPath96"><path
         d="m 292.914,70.362 c 0,-1.109 -0.902,-2.012 -2.012,-2.012 -1.109,0 -2.011,0.903 -2.011,2.012 0,1.109 0.902,2.012 2.011,2.012 1.11,0 2.012,-0.903 2.012,-2.012 z"
         id="path94"
         inkscape:connector-curvature="0" /></clipPath><clipPath
       clipPathUnits="userSpaceOnUse"
       id="clipPath106"><path
         d="m 288,68 h 5 v 5 h -5 z"
         id="path104"
         inkscape:connector-curvature="0" /></clipPath><clipPath
       clipPathUnits="userSpaceOnUse"
       id="clipPath116"><path
         d="m 292.914,70.953 c 0,-1.109 -0.902,-2.012 -2.012,-2.012 -1.109,0 -2.011,0.903 -2.011,2.012 0,1.109 0.902,2.012 2.011,2.012 1.11,0 2.012,-0.903 2.012,-2.012 z"
         id="path114"
         inkscape:connector-curvature="0"
         style="clip-rule:evenodd" /></clipPath><radialGradient
       fx="146.49426"
       fy="145.65688"
       cx="146.49426"
       cy="145.65688"
       r="1.95717"
       gradientUnits="userSpaceOnUse"
       gradientTransform="matrix(-0.595619,-1.027256,-1.149635,0.666576,545.11656,126.09202)"
       spreadMethod="pad"
       id="radialGradient124"><stop
         style="stop-opacity:1;stop-color:#4e9a06"
         offset="0"
         id="stop120" /><stop
         style="stop-opacity:1;stop-color:#73d216"
         offset="1"
         id="stop122" /></radialGradient><clipPath
       clipPathUnits="userSpaceOnUse"
       id="clipPath148"><path
         d="m 298,80.409 h 5 v -5 h -5 z"
         id="path146"
         inkscape:connector-curvature="0" /></clipPath><clipPath
       clipPathUnits="userSpaceOnUse"
       id="clipPath154"><path
         d="m 302.273,78.382 c 0,-1.11 -0.898,-2.008 -2.007,-2.008 -1.11,0 -2.012,0.898 -2.012,2.008 0,1.113 0.902,2.011 2.012,2.011 1.109,0 2.007,-0.898 2.007,-2.011 z"
         id="path152"
         inkscape:connector-curvature="0" /></clipPath><clipPath
       clipPathUnits="userSpaceOnUse"
       id="clipPath164"><path
         d="m 298,76 h 5 v 5 h -5 z"
         id="path162"
         inkscape:connector-curvature="0" /></clipPath><clipPath
       clipPathUnits="userSpaceOnUse"
       id="clipPath174"><path
         d="m 302.273,78.973 c 0,-1.11 -0.898,-2.008 -2.007,-2.008 -1.11,0 -2.012,0.898 -2.012,2.008 0,1.113 0.902,2.011 2.012,2.011 1.109,0 2.007,-0.898 2.007,-2.011 z"
         id="path172"
         inkscape:connector-curvature="0"
         style="clip-rule:evenodd" /></clipPath><radialGradient
       fx="146.49426"
       fy="145.65688"
       cx="146.49426"
       cy="145.65688"
       r="1.95717"
       gradientUnits="userSpaceOnUse"
       gradientTransform="matrix(-0.595619,-1.027256,-1.149635,0.666576,554.47948,134.11357)"
       spreadMethod="pad"
       id="radialGradient182"><stop
         style="stop-opacity:1;stop-color:#a40000"
         offset="0"
         id="stop178" /><stop
         style="stop-opacity:1;stop-color:#ef2929"
         offset="1"
         id="stop180" /></radialGradient><clipPath
       clipPathUnits="userSpaceOnUse"
       id="clipPath228"><path
         d="m 245,105.409 h 26 v -24 h -26 z"
         id="path226"
         inkscape:connector-curvature="0" /></clipPath><clipPath
       clipPathUnits="userSpaceOnUse"
       id="clipPath234"><path
         d="m 257.594,105.21 c -1.856,-0.071 -2.84,-0.793 -5.606,-1.617 -2.761,-0.821 -6.187,-3.887 -6.187,-8.446 0,-5.797 4.699,-11.527 10.496,-12.797 2.91,-0.636 4.711,-0.027 7.789,1.039 3.082,1.067 6.633,4.231 6.633,8.786 0,5.8 -4.699,11.531 -10.496,12.796 -0.907,0.2 -1.789,0.27 -2.629,0.239 z"
         id="path232"
         inkscape:connector-curvature="0" /></clipPath><clipPath
       clipPathUnits="userSpaceOnUse"
       id="clipPath244"><path
         d="m 245,82 h 26 v 24 h -26 z"
         id="path242"
         inkscape:connector-curvature="0" /></clipPath><clipPath
       clipPathUnits="userSpaceOnUse"
       id="clipPath254"><path
         d="m 257.594,105.801 c -1.856,-0.071 -2.84,-0.793 -5.606,-1.617 -2.761,-0.821 -6.187,-3.887 -6.187,-8.446 0,-5.797 4.699,-11.527 10.496,-12.797 2.91,-0.636 4.711,-0.027 7.789,1.039 3.082,1.067 6.633,4.231 6.633,8.786 0,5.8 -4.699,11.531 -10.496,12.796 -0.907,0.2 -1.789,0.27 -2.629,0.239 z"
         id="path252"
         inkscape:connector-curvature="0" /></clipPath><linearGradient
       x1="533.21429"
       y1="211.64789"
       x2="512.14282"
       y2="168.79076"
       gradientUnits="userSpaceOnUse"
       gradientTransform="matrix(0.477773,0,0,-0.477773,8.630011,185.20136)"
       spreadMethod="pad"
       id="linearGradient262"><stop
         style="stop-opacity:1;stop-color:#83e028"
         offset="0"
         id="stop258" /><stop
         style="stop-opacity:1;stop-color:#407110"
         offset="1"
         id="stop260" /></linearGradient></defs><sodipodi:namedview
     pagecolor="#ffffff"
     bordercolor="#666666"
     borderopacity="1"
     objecttolerance="10"
     gridtolerance="10"
     guidetolerance="10"
     inkscape:pageopacity="0"
     inkscape:pageshadow="2"
     inkscape:window-width="2560"
     inkscape:window-height="1320"
     id="namedview4"
     showgrid="false"
     inkscape:zoom="7.3511756"
     inkscape:cx="68.306756"
     inkscape:cy="100.83624"
     inkscape:window-x="0"
     inkscape:window-y="64"
     inkscape:window-maximized="1"
     inkscape:current-layer="g186"
     fit-margin-top="0"
     fit-margin-left="0"
     fit-margin-right="0"
     fit-margin-bottom="0" /><g
     id="g10"
     inkscape:groupmode="layer"
     inkscape:label="background"
     transform="matrix(1.3333333,0,0,-1.3333333,-307.37999,194.368)"><g
       id="g12"><path
         d="m 310.441,109.335 -4.519,1.34 -1.914,4.5 4.523,-1.34 z"
         style="fill:#fedeb0;fill-opacity:1;fill-rule:evenodd;stroke:none"
         id="path14"
         inkscape:connector-curvature="0" /><path
         d="m 305.922,110.675 -19,-21.289 -1.91,4.503 18.996,21.286 z"
         style="fill:#ef9104;fill-opacity:1;fill-rule:evenodd;stroke:none"
         id="path16"
         inkscape:connector-curvature="0" /><path
         d="m 310.441,109.335 -4.519,1.34 -19,-21.289 4.523,-1.34 z"
         style="fill:#fedeb0;fill-opacity:1;fill-rule:evenodd;stroke:none"
         id="path18"
         inkscape:connector-curvature="0" /><path
         d="m 301.086,120.011 34.832,-19.59 19.914,10.886 -32.437,16.747 z"
         style="fill:#ef9104;fill-opacity:1;fill-rule:evenodd;stroke:none"
         id="path20"
         inkscape:connector-curvature="0" /><path
         d="m 335.871,100.397 -2.117,-53.015 20.453,10.773 1.629,53.227 z"
         style="fill:#fedeb0;fill-opacity:1;fill-rule:evenodd;stroke:none"
         id="path22"
         inkscape:connector-curvature="0" /><path
         d="m 301.109,120.05 34.793,-19.625 -2.218,-52.883 -33.68,20.965 z"
         style="fill:#fcbb5b;fill-opacity:1;fill-rule:evenodd;stroke:none"
         id="path24"
         inkscape:connector-curvature="0" /><path
         d="m 308.035,138.35 28.516,-15.644 13.609,8.531 -26.894,14.539 z"
         style="fill:#ef9104;fill-opacity:1;fill-rule:evenodd;stroke:none"
         id="path26"
         inkscape:connector-curvature="0" /><path
         d="m 336.551,122.706 -2.672,-18.188 13.797,7.957 2.742,18.848 z"
         style="fill:#fedeb0;fill-opacity:1;fill-rule:evenodd;stroke:none"
         id="path28"
         inkscape:connector-curvature="0" /><path
         d="m 308.035,138.35 28.516,-15.644 -2.731,-18.074 -24.117,12.82 z"
         style="fill:#fcbb5b;fill-opacity:1;fill-rule:evenodd;stroke:none"
         id="path30"
         inkscape:connector-curvature="0" /><path
         d="m 318.977,125.374 c -0.325,-0.965 -1.571,-1.297 -2.786,-0.742 -1.211,0.55 -1.933,1.777 -1.609,2.742 0.324,0.965 1.57,1.297 2.781,0.742 1.215,-0.551 1.938,-1.781 1.614,-2.742 z"
         style="fill:#eeeeec;fill-opacity:1;fill-rule:nonzero;stroke:#eeeeec;stroke-width:1.07493198;stroke-linecap:butt;stroke-linejoin:round;stroke-miterlimit:4;stroke-dasharray:none;stroke-opacity:1"
         id="path32"
         inkscape:connector-curvature="0" /><path
         d="m 330.449,119.514 c -0.32,-0.96 -1.566,-1.293 -2.781,-0.742 -1.215,0.555 -1.938,1.782 -1.613,2.746 0.324,0.961 1.57,1.293 2.785,0.743 1.215,-0.551 1.933,-1.782 1.609,-2.747 z"
         style="fill:#eeeeec;fill-opacity:1;fill-rule:nonzero;stroke:#eeeeec;stroke-width:1.07493198;stroke-linecap:butt;stroke-linejoin:round;stroke-miterlimit:4;stroke-dasharray:none;stroke-opacity:1"
         id="path34"
         inkscape:connector-curvature="0" /><path
         d="m 317.156,125.042 c -0.125,-0.371 -0.605,-0.5 -1.07,-0.285 -0.469,0.211 -0.746,0.683 -0.621,1.054 0.125,0.368 0.605,0.496 1.07,0.285 0.469,-0.214 0.746,-0.683 0.621,-1.054 z"
         style="fill:#2e3436;fill-opacity:1;fill-rule:nonzero;stroke:#2e3436;stroke-width:0.41338399;stroke-linecap:butt;stroke-linejoin:round;stroke-miterlimit:4;stroke-dasharray:none;stroke-opacity:1"
         id="path36"
         inkscape:connector-curvature="0" /><path
         d="m 328.504,119.241 c -0.125,-0.371 -0.606,-0.5 -1.07,-0.289 -0.469,0.215 -0.746,0.687 -0.622,1.055 0.126,0.371 0.602,0.5 1.071,0.289 0.465,-0.215 0.742,-0.688 0.621,-1.055 z"
         style="fill:#2e3436;fill-opacity:1;fill-rule:nonzero;stroke:#2e3436;stroke-width:0.41338399;stroke-linecap:butt;stroke-linejoin:round;stroke-miterlimit:4;stroke-dasharray:none;stroke-opacity:1"
         id="path38"
         inkscape:connector-curvature="0" /><path
         d="m 332.535,141.589 -2.223,-0.907 -2.191,1.18 2.223,0.906 z"
         style="fill:#ef9104;fill-opacity:1;fill-rule:evenodd;stroke:none"
         id="path40"
         inkscape:connector-curvature="0" /><path
         d="m 330.312,140.682 -0.46,-7.382 -2.192,1.179 0.461,7.383 z"
         style="fill:#fcbb5b;fill-opacity:1;fill-rule:evenodd;stroke:none"
         id="path42"
         inkscape:connector-curvature="0" /><path
         d="m 332.535,141.589 -2.223,-0.907 -0.457,-7.324 2.223,0.906 z"
         style="fill:#fedeb0;fill-opacity:1;fill-rule:evenodd;stroke:none"
         id="path44"
         inkscape:connector-curvature="0" /><path
         d="M 245.547,70.456 V 36.304 l 3.598,1.699 v 34.148 z"
         style="fill:#d7d7ff;fill-opacity:1;fill-rule:evenodd;stroke:none"
         id="path46"
         inkscape:connector-curvature="0" /><path
         d="m 241.109,72.546 4.438,-2.09 V 36.304 l -4.438,2.089 z"
         style="fill:#8686bf;fill-opacity:1;fill-rule:evenodd;stroke:none"
         id="path48"
         inkscape:connector-curvature="0" /><path
         d="M 340.676,60.6 V 26.448 l 3.601,1.699 v 34.149 z"
         style="fill:#d7d7ff;fill-opacity:1;fill-rule:evenodd;stroke:none"
         id="path50"
         inkscape:connector-curvature="0" /><path
         d="m 336.242,62.69 4.434,-2.09 V 26.448 l -4.434,2.09 z"
         style="fill:#8686bf;fill-opacity:1;fill-rule:evenodd;stroke:none"
         id="path52"
         inkscape:connector-curvature="0" /><path
         d="M 308.152,42.886 V 8.733 l 3.598,1.699 v 34.149 z"
         style="fill:#d7d7ff;fill-opacity:1;fill-rule:evenodd;stroke:none"
         id="path54"
         inkscape:connector-curvature="0" /><path
         d="m 303.715,44.975 4.437,-2.089 V 8.733 l -4.437,2.094 z"
         style="fill:#8686bf;fill-opacity:1;fill-rule:evenodd;stroke:none"
         id="path56"
         inkscape:connector-curvature="0" /><path
         d="M 233.691,77.761 309.895,41.835 352.82,62.073 276.617,97.995 Z"
         style="fill:#4d4d9f;fill-opacity:1;fill-rule:evenodd;stroke:none"
         id="path58"
         inkscape:connector-curvature="0" /><path
         d="m 309.895,41.835 v -3.524 l 42.925,20.235 v 3.527 z"
         style="fill:#d7d7ff;fill-opacity:1;fill-rule:evenodd;stroke:none"
         id="path60"
         inkscape:connector-curvature="0" /><path
         d="M 233.691,77.761 309.895,41.835 V 38.311 L 233.691,74.233 Z"
         style="fill:#8686bf;fill-opacity:1;fill-rule:evenodd;stroke:none"
         id="path62"
         inkscape:connector-curvature="0" /><path
         d="M 297.207,85.721 328.66,70.6 295.121,54.44 262.973,69.386 Z"
         style="fill:#8f5902;fill-opacity:1;fill-rule:nonzero;stroke:#8f5902;stroke-width:0.554479;stroke-linecap:butt;stroke-linejoin:miter;stroke-miterlimit:4;stroke-dasharray:none;stroke-opacity:1"
         id="path64"
         inkscape:connector-curvature="0" /><path
         d="M 297.102,84.554 326.207,70.561 295.172,55.608 265.422,69.436 Z"
         style="fill:#c17d11;fill-opacity:1;fill-rule:nonzero;stroke:none"
         id="path66"
         inkscape:connector-curvature="0" /><g
         id="g1166"
         transform="matrix(1.3263334,0,0,1.3263334,-96.164653,-24.628491)"><path
           inkscape:connector-curvature="0"
           id="path78"
           style="fill:#4e9a06;fill-opacity:1;fill-rule:evenodd;stroke:none"
           d="m 288.234,68.561 2.59,-1.043 3.008,1.473 -2.59,1.043 z" /><path
           inkscape:connector-curvature="0"
           id="path80"
           style="fill:#8ae234;fill-opacity:1;fill-rule:evenodd;stroke:none"
           d="m 290.824,67.518 -0.027,-3.023 3.008,1.473 0.027,3.023 z" /><path
           inkscape:connector-curvature="0"
           id="path82"
           style="fill:#73d216;fill-opacity:1;fill-rule:evenodd;stroke:none"
           d="m 288.234,68.561 2.59,-1.043 -0.027,-3.023 -2.59,1.043 z" /></g><g
         transform="matrix(1.3263334,0,0,1.3263334,-82.290381,-22.427744)"
         id="g1174"><path
           d="m 288.234,68.561 2.59,-1.043 3.008,1.473 -2.59,1.043 z"
           style="fill:#9a068a;fill-opacity:1;fill-rule:evenodd;stroke:none"
           id="path1168"
           inkscape:connector-curvature="0" /><path
           d="m 290.824,67.518 -0.027,-3.023 3.008,1.473 0.027,3.023 z"
           style="fill:#e234db;fill-opacity:1;fill-rule:evenodd;stroke:none"
           id="path1170"
           inkscape:connector-curvature="0" /><path
           d="m 288.234,68.561 2.59,-1.043 -0.027,-3.023 -2.59,1.043 z"
           style="fill:#d216c6;fill-opacity:1;fill-rule:evenodd;stroke:none"
           id="path1172"
           inkscape:connector-curvature="0" /></g><g
         transform="matrix(1.3263334,0,0,1.3263334,-99.322243,-24.437124)"
         id="g128"><path
           d="m 300.605,78.057 2.59,-1.046 -0.027,-3.02 -2.59,1.043 z"
           style="fill:#e9e9ff;fill-opacity:1;fill-rule:evenodd;stroke:none"
           id="path130"
           inkscape:connector-curvature="0" /><path
           d="m 297.598,76.585 -0.028,-3.024 3.008,1.473 0.027,3.023 z"
           style="fill:#353564;fill-opacity:1;fill-rule:evenodd;stroke:none"
           id="path132"
           inkscape:connector-curvature="0" /><path
           d="m 297.57,73.561 2.586,-1.047 3.012,1.477 -2.59,1.043 z"
           style="fill:#afafde;fill-opacity:1;fill-rule:evenodd;stroke:none"
           id="path134"
           inkscape:connector-curvature="0" /><path
           d="m 297.598,76.585 2.59,-1.047 3.007,1.473 -2.59,1.046 z"
           style="fill:#a40000;fill-opacity:1;fill-rule:evenodd;stroke:none"
           id="path136"
           inkscape:connector-curvature="0" /><path
           d="m 300.188,75.538 -0.032,-3.024 3.012,1.477 0.027,3.02 z"
           style="fill:#ef2929;fill-opacity:1;fill-rule:evenodd;stroke:none"
           id="path138"
           inkscape:connector-curvature="0" /><path
           d="m 297.598,76.585 2.59,-1.047 -0.032,-3.024 -2.586,1.047 z"
           style="fill:#cc0000;fill-opacity:1;fill-rule:evenodd;stroke:none"
           id="path140"
           inkscape:connector-curvature="0" /></g><g
         id="g1093"
         transform="matrix(1.3263334,0,0,1.3263334,-110.99576,-24.437124)"><path
           inkscape:connector-curvature="0"
           id="path1081"
           style="fill:#e9e9ff;fill-opacity:1;fill-rule:evenodd;stroke:none"
           d="m 300.605,78.057 2.59,-1.046 -0.027,-3.02 -2.59,1.043 z" /><path
           inkscape:connector-curvature="0"
           id="path1083"
           style="fill:#353564;fill-opacity:1;fill-rule:evenodd;stroke:none"
           d="m 297.598,76.585 -0.028,-3.024 3.008,1.473 0.027,3.023 z" /><path
           inkscape:connector-curvature="0"
           id="path1085"
           style="fill:#afafde;fill-opacity:1;fill-rule:evenodd;stroke:none"
           d="m 297.57,73.561 2.586,-1.047 3.012,1.477 -2.59,1.043 z" /><path
           inkscape:connector-curvature="0"
           id="path1087"
           style="fill:#000ca4;fill-opacity:1;fill-rule:evenodd;stroke:none"
           d="m 297.598,76.585 2.59,-1.047 3.007,1.473 -2.59,1.046 z" /><path
           inkscape:connector-curvature="0"
           id="path1089"
           style="fill:#294fef;fill-opacity:1;fill-rule:evenodd;stroke:none"
           d="m 300.188,75.538 -0.032,-3.024 3.012,1.477 0.027,3.02 z" /><path
           inkscape:connector-curvature="0"
           id="path1091"
           style="fill:#0019cc;fill-opacity:1;fill-rule:evenodd;stroke:none"
           d="m 297.598,76.585 2.59,-1.047 -0.032,-3.024 -2.586,1.047 z" /></g></g><g
       id="g186"><path
         d="M 246.297,39.745 V 11.214 l 4.426,2.082 v 28.535 z"
         style="fill:#83e028;fill-opacity:1;fill-rule:evenodd;stroke:none"
         id="path188"
         inkscape:connector-curvature="0" /><path
         d="m 242.031,41.757 4.266,-2.012 V 11.214 l -4.266,2.007 z"
         style="fill:#569716;fill-opacity:1;fill-rule:evenodd;stroke:none"
         id="path190"
         inkscape:connector-curvature="0" /><path
         d="M 260.121,32.237 V 3.706 l 4.422,2.082 v 28.535 z"
         style="fill:#83e028;fill-opacity:1;fill-rule:evenodd;stroke:none"
         id="path192"
         inkscape:connector-curvature="0" /><path
         d="m 255.855,34.249 4.266,-2.012 V 3.706 l -4.266,2.008 z"
         style="fill:#569716;fill-opacity:1;fill-rule:evenodd;stroke:none"
         id="path194"
         inkscape:connector-curvature="0" /><path
         d="m 236.164,64.679 21.453,-11.77 19.75,10.836 -21.449,11.769 z"
         style="fill:#407110;fill-opacity:1;fill-rule:evenodd;stroke:none"
         id="path196"
         inkscape:connector-curvature="0" /><path
         d="m 257.617,52.909 6.688,-32.25 19.754,10.84 -6.692,32.246 z"
         style="fill:#83e028;fill-opacity:1;fill-rule:evenodd;stroke:none"
         id="path198"
         inkscape:connector-curvature="0" /><path
         d="m 236.164,64.679 21.453,-11.77 6.824,-32.352 -33.906,18.766 z"
         style="fill:#569716;fill-opacity:1;fill-rule:evenodd;stroke:none"
         id="path200"
         inkscape:connector-curvature="0" /><path
         d="m 313.484,82.417 3.899,-2.653 0.449,-4.871 -3.898,2.657 z"
         style="fill:#fcbb5b;fill-opacity:1;fill-rule:evenodd;stroke:none"
         id="path202"
         inkscape:connector-curvature="0" /><path
         d="m 317.383,79.764 24.578,14.489 0.453,-4.867 -24.582,-14.493 z"
         style="fill:#fedeb0;fill-opacity:1;fill-rule:evenodd;stroke:none"
         id="path204"
         inkscape:connector-curvature="0" /><path
         d="m 313.484,82.417 3.899,-2.653 24.578,14.489 -3.899,2.652 z"
         style="fill:#ef9104;fill-opacity:1;fill-rule:evenodd;stroke:none"
         id="path206"
         inkscape:connector-curvature="0" /><path
         d="M 326.082,116.581 302.422,76.182"
         style="fill:#888a85;fill-opacity:1;fill-rule:evenodd;stroke:#888a85;stroke-width:2.31999993;stroke-linecap:round;stroke-linejoin:miter;stroke-miterlimit:4;stroke-dasharray:2.32, 4.64;stroke-dashoffset:0;stroke-opacity:1"
         id="path208"
         inkscape:connector-curvature="0" /><path
         d="M 315.406,121.776 302.422,76.182"
         style="fill:#888a85;fill-opacity:1;fill-rule:evenodd;stroke:#888a85;stroke-width:2.31999993;stroke-linecap:round;stroke-linejoin:miter;stroke-miterlimit:4;stroke-dasharray:2.32, 4.64;stroke-dashoffset:0;stroke-opacity:1"
         id="path210"
         inkscape:connector-curvature="0" /><path
         d="M 248.23204,95.467196 296.83939,76.846665"
         style="fill:#888a85;fill-opacity:1;fill-rule:evenodd;stroke:#888a85;stroke-width:2.31999993;stroke-linecap:round;stroke-linejoin:miter;stroke-miterlimit:4;stroke-dasharray:2.32, 4.64;stroke-dashoffset:0;stroke-opacity:1"
         id="path212"
         inkscape:connector-curvature="0"
         sodipodi:nodetypes="cc" /><path
         d="m 267.21883,93.256804 31.6083,-17.505356"
         style="fill:#888a85;fill-opacity:1;fill-rule:evenodd;stroke:#888a85;stroke-width:2.31999993;stroke-linecap:round;stroke-linejoin:miter;stroke-miterlimit:4;stroke-dasharray:2.32, 4.64;stroke-dashoffset:0;stroke-opacity:1"
         id="path214"
         inkscape:connector-curvature="0"
         sodipodi:nodetypes="cc" /><path
         d="M 233.254,88.218 261.77,72.573 281.52,83.409 253.004,99.054 Z"
         style="fill:#407110;fill-opacity:1;fill-rule:evenodd;stroke:none"
         id="path216"
         inkscape:connector-curvature="0" /><path
         d="m 261.77,72.573 -2.672,-18.184 20.453,10.77 1.969,18.25 z"
         style="fill:#83e028;fill-opacity:1;fill-rule:evenodd;stroke:none"
         id="path218"
         inkscape:connector-curvature="0" /><path
         d="M 233.254,88.218 261.77,72.573 259.039,54.499 234.922,67.323 Z"
         style="fill:#569716;fill-opacity:1;fill-rule:evenodd;stroke:none"
         id="path220"
         inkscape:connector-curvature="0" /></g><g
       id="g222"><g
         id="g224"
         clip-path="url(#clipPath228)"><g
           id="g230"
           clip-path="url(#clipPath234)"><g
             id="g236"
             transform="translate(0,-0.591003)"><g
               id="g238"><g
                 id="g240"
                 clip-path="url(#clipPath244)"><g
                   id="g246"><g
                     id="g248"><g
                       id="g250"
                       clip-path="url(#clipPath254)"><g
                         id="g256"><path
                           d="m 257.594,105.801 c -1.856,-0.071 -2.84,-0.793 -5.606,-1.617 -2.761,-0.821 -6.187,-3.887 -6.187,-8.446 0,-5.797 4.699,-11.527 10.496,-12.797 2.91,-0.636 4.711,-0.027 7.789,1.039 3.082,1.067 6.633,4.231 6.633,8.786 0,5.8 -4.699,11.531 -10.496,12.796 -0.907,0.2 -1.789,0.27 -2.629,0.239 z"
                           style="fill:url(#linearGradient262);stroke:none"
                           id="path264"
                           inkscape:connector-curvature="0" /></g></g></g></g></g></g></g></g></g></g><g
       id="g266"><path
         d="m 266.789,90.557 c 0,-5.796 -4.699,-9.472 -10.496,-8.203 -5.797,1.266 -10.5,6.992 -10.5,12.789 0,5.797 4.703,9.473 10.5,8.203 5.797,-1.265 10.496,-6.992 10.496,-12.789 z"
         style="fill:#569716;fill-opacity:1;fill-rule:nonzero;stroke:none"
         id="path268"
         inkscape:connector-curvature="0" /><path
         d="m 265.457,67.956 4.656,-0.754 3.672,3.23 -4.656,0.75 z"
         style="fill:#407110;fill-opacity:1;fill-rule:evenodd;stroke:none"
         id="path270"
         inkscape:connector-curvature="0" /><path
         d="m 270.113,67.202 7.891,-27.418 3.672,3.227 -7.891,27.421 z"
         style="fill:#83e028;fill-opacity:1;fill-rule:evenodd;stroke:none"
         id="path272"
         inkscape:connector-curvature="0" /><path
         d="m 265.457,67.956 4.656,-0.754 7.891,-27.418 -4.656,0.754 z"
         style="fill:#569716;fill-opacity:1;fill-rule:evenodd;stroke:none"
         id="path274"
         inkscape:connector-curvature="0" /></g><g
       id="g1188"
       transform="matrix(1.5269782,0,0,1.5269782,-143.64908,-45.370725)"><path
         inkscape:connector-curvature="0"
         id="path1184"
         style="fill:#efc729;fill-opacity:1;fill-rule:evenodd;stroke:none"
         d="m 298.3388,77.157639 2.07226,-3.585135 3.012,1.477 -2.07726,3.581135 z"
         sodipodi:nodetypes="ccccc" /><path
         inkscape:connector-curvature="0"
         id="path1186"
         style="fill:#cc9000;fill-opacity:1;fill-rule:evenodd;stroke:none"
         d="m 298.3388,77.157639 2.07226,-3.585135 -4.2694,1.761172 z"
         sodipodi:nodetypes="cccc" /></g></g></svg>